# Blender v2.78 (sub 0) OBJ File: 'boxplate_array01.blend'
# www.blender.org
mtllib boxplate_array01.mtl
o PlaneA_Plane.001
v 0.010000 1.250000 1.000000
v 0.010000 1.250000 -1.000000
v 0.010000 5.250000 1.000000
v 0.010000 5.250000 -1.000000
vn 1.0000 0.0000 -0.0000
usemtl solararray
s off
f 2//1 3//1 1//1
f 2//1 4//1 3//1
o PlaneB_Plane.002
v -0.010000 1.250000 -1.000000
v -0.010000 1.250000 1.000000
v -0.010000 5.250000 -1.000000
v -0.010000 5.250000 1.000000
vn -1.0000 0.0000 -0.0000
usemtl solararray
s off
f 6//2 7//2 5//2
f 6//2 8//2 7//2
o BUS_Cube
v 1.249999 1.249999 -1.250000
v 1.249999 -1.249999 -1.250000
v -1.250000 -1.249999 -1.250000
v -1.249999 1.250000 -1.250000
v 1.250000 1.249999 1.250000
v 1.249999 -1.250000 1.250000
v -1.250000 -1.249999 1.250000
v -1.249999 1.249999 1.250000
vn 0.0000 0.0000 -1.0000
vn 0.0000 0.0000 1.0000
vn 1.0000 0.0000 -0.0000
vn -0.0000 -1.0000 -0.0000
vn -1.0000 0.0000 -0.0000
vn 0.0000 1.0000 0.0000
usemtl bus
s off
f 10//3 12//3 9//3
f 16//4 14//4 13//4
f 13//5 10//5 9//5
f 14//6 11//6 10//6
f 11//7 16//7 12//7
f 9//8 16//8 13//8
f 10//3 11//3 12//3
f 16//4 15//4 14//4
f 13//5 14//5 10//5
f 14//6 15//6 11//6
f 11//7 15//7 16//7
f 9//8 12//8 16//8
